<?xml version="1.0" standalone="no"?><!DOCTYPE svg PUBLIC "-//W3C//DTD SVG 1.1//EN" "http://www.w3.org/Graphics/SVG/1.1/DTD/svg11.dtd"><svg t="1662010645915" class="icon" viewBox="0 0 1024 1024" version="1.1" xmlns="http://www.w3.org/2000/svg" p-id="1696" xmlns:xlink="http://www.w3.org/1999/xlink" width="200" height="200"><path d="M879.6 913.9h-136v-51h-51v51h-119c-18.8 0-34-15.2-34-34v-306c0-18.8 15.2-34 34-34h119v170h221v170c0 18.8-15.2 34-34 34z m-119-272v-102h119c18.8 0 34 15.2 34 34v85h-136c-9.4 0-17-7.6-17-17z m119-153h-306c-18.8 0-34-15.2-34-34v-306c0-18.8 15.2-34 34-34h306c18.8 0 34 15.2 34 34v306c0 18.8-15.2 34-34 34z m-68-255c0-9.4-7.6-17-17-17h-136c-9.4 0-17 7.6-17 17v136c0 9.4 7.6 17 17 17h136c9.4 0 17-7.6 17-17v-136z m-119 34h68v68h-68v-68z m-238 646h-306c-18.8 0-34-15.2-34-34v-306c0-18.8 15.2-34 34-34h306c18.8 0 34 15.2 34 34v306c0 18.8-15.3 34-34 34z m-68-255c0-9.4-7.6-17-17-17h-136c-9.4 0-17 7.6-17 17v136c0 9.4 7.6 17 17 17h136c9.4 0 17-7.6 17-17v-136z m-119 34h68v68h-68v-68z m187-204h-306c-18.8 0-34-15.2-34-34v-306c0-18.8 15.2-34 34-34h306c18.8 0 34 15.2 34 34v306c0 18.8-15.3 34-34 34z m-68-255c0-9.4-7.6-17-17-17h-136c-9.4 0-17 7.6-17 17v136c0 9.4 7.6 17 17 17h136c9.4 0 17-7.6 17-17v-136z m-119 34h60v60h-60v-60z" fill="#00BBF1" p-id="1697"></path><path d="M148.6 913.9h306c18.8 0 34-15.2 34-34V667.4h-102v127.5c0 9.4-7.6 17-17 17h-136c-9.4 0-17-7.6-17-17V667.4h-102v212.5c0 18.8 15.2 34 34 34zM539.6 667.4v212.5c0 18.8 15.2 34 34 34h119v-51h51v51h136c18.8 0 34-15.2 34-34v-170h-221v-42.5h-153z" fill="#9DFFBD" opacity=".2" p-id="1698"></path><path d="M267.6 692.9h68v68h-68z" fill="#9DFFBD" opacity=".2" p-id="1699"></path><path d="M148.6 913.9h306c18.8 0 34-15.2 34-34V582.4h-374v297.5c0 18.8 15.2 34 34 34z m68-255c0-9.4 7.6-17 17-17h136c9.4 0 17 7.6 17 17v136c0 9.4-7.6 17-17 17h-136c-9.4 0-17-7.6-17-17v-136z" fill="#9DFFBD" opacity=".15" p-id="1700"></path><path d="M267.6 692.9h68v68h-68zM760.6 582.4v59.5c0 9.4 7.6 17 17 17h136v-76.5h-153z" fill="#9DFFBD" opacity=".15" p-id="1701"></path><path d="M539.6 879.9c0 18.8 15.2 34 34 34h119v-51h51v51h136c18.8 0 34-15.2 34-34v-170h-221V582.4h-153v297.5z" fill="#9DFFBD" opacity=".15" p-id="1702"></path><path d="M573.6 539.9c-18.8 0-34 15.2-34 34v306c0 18.8 15.2 34 34 34h119v-51h51v51h136c18.8 0 34-15.2 34-34v-170h-221v-170h-119zM114.6 454.9c0 18.8 15.2 34 34 34h306c18.8 0 34-15.2 34-34v-25.5h-374v25.5z" fill="#9DFFBD" opacity=".1" p-id="1703"></path><path d="M913.6 658.9v-85c0-18.8-15.2-34-34-34h-119v102c0 9.4 7.6 17 17 17h136zM148.6 913.9h306c18.8 0 34-15.2 34-34v-306c0-18.8-15.2-34-34-34h-306c-18.8 0-34 15.2-34 34v306c0 18.8 15.2 34 34 34z m68-255c0-9.4 7.6-17 17-17h136c9.4 0 17 7.6 17 17v136c0 9.4-7.6 17-17 17h-136c-9.4 0-17-7.6-17-17v-136z" fill="#9DFFBD" opacity=".1" p-id="1704"></path><path d="M267.6 692.9h68v68h-68zM539.6 429.4v25.5c0 18.8 15.2 34 34 34h306c18.8 0 34-15.2 34-34v-25.5h-374z" fill="#9DFFBD" opacity=".1" p-id="1705"></path></svg>